# xmcd
#
# Track frame offsets: 
#        150
#        10695
#        21002
#        32040
#        43212
#        55395
#        69350
#        80517
#        96192
#        114502
#        124852
#        137615
#        149530
#        161360
#        180455
#        193325
#        207235
#        219355
#        233030
#        245602
#        259107
#        268640
#        282025
#        293352
#        310270
#
# Disc length: 4290 seconds
#
# Revision: 2
# Processed by: cddbd v1.5.1PL0 Copyright (c) Steve Scherf et al.
# Submitted via: ExactAudioCopy v0.95a5
#
DISCID=6610c019
DTITLE=Various Artist - Chess Blues [CD4: 1960-1967)
DYEAR=1992
DGENRE=Blues
TTITLE0=Buddy Guy - First Time I Met The Blues
TTITLE1=Detroit Jr. - Too Poor
TTITLE2=Lowell Fulson - Blue Shadows
TTITLE3=Lloyd Glenn - The Shakedown
TTITLE4=Elmore James - The Sun Is Shining (Alternate)
TTITLE5=Albert King - Calling On My Darling
TTITLE6=Howlin' Wolf - The Red Rooster
TTITLE7=Sonny Boy Williamson - Nine Below Zero
TTITLE8=Howlin' Wolf - Goin' Down Slow
TTITLE9=Little Milton - Satisfied
TTITLE10=Etta James - Something's Got A Hold On Me
TTITLE11=The Big Three Trio - Wrinkles
TTITLE12=Sonny Boy Williamson - Bring It On Home
TTITLE13=Walter Horton - Good Moanin' Blues
TTITLE14=Howlin' Wolf - Killing Floor
TTITLE15=Koko Taylor - What Kind Of Man Is That?
TTITLE16=Little Milton - We're Gonna Make It
TTITLE17=Koko Taylor - Wang Dang Doodle
TTITLE18=Little Joe Blue - Dirty Work Goin' On
TTITLE19=John Lee Hooker - One Bourbon, One Scotch, One Beer
TTITLE20=Eddie Burns - Jinglin' Baby
TTITLE21=Muddy Waters - That's Why I Don't Mind
TTITLE22=Buddy Guy - Keep It To Myself
TTITLE23=Hound Dog Taylor - Sitting Here Alone
TTITLE24=Etta James - I'd Rather Go Blind
EXTD=
EXTT0=
EXTT1=
EXTT2=
EXTT3=
EXTT4=
EXTT5=
EXTT6=
EXTT7=
EXTT8=
EXTT9=
EXTT10=
EXTT11=
EXTT12=
EXTT13=
EXTT14=
EXTT15=
EXTT16=
EXTT17=
EXTT18=
EXTT19=
EXTT20=
EXTT21=
EXTT22=
EXTT23=
EXTT24=
PLAYORDER=
